<svg id="Layer_1" data-name="Layer 1" xmlns="http://www.w3.org/2000/svg" viewBox="0 0 498.1 490.47"><defs><style>.cls-1{fill:#fff;}</style></defs><path class="cls-1" d="M54.14,375.22c10,0,17.4,3.1,24.2,9.3a1.86,1.86,0,0,1,.1,2.8l-7.8,8.1a1.75,1.75,0,0,1-2.5,0,20.43,20.43,0,0,0-13.5-5.1c-11.3,0-19.6,9.4-19.6,20.6s8.4,20.3,19.7,20.3a21.15,21.15,0,0,0,13.4-4.8,2,2,0,0,1,2.6.1l7.8,8.3a2,2,0,0,1-.1,2.7,34.32,34.32,0,0,1-24.3,9.7,36,36,0,1,1,0-72Z" transform="translate(-18.04 -23.9)"/><path class="cls-1" d="M122.44,378.12a2,2,0,0,1,1.9-1.9h12a2,2,0,0,1,1.9,1.9v66.2a2,2,0,0,1-1.9,1.9h-12a2,2,0,0,1-1.9-1.9Z" transform="translate(-18.04 -23.9)"/><path class="cls-1" d="M218.34,375.32a38.61,38.61,0,0,1,24.4,9.4,1.75,1.75,0,0,1,.2,2.7l-7.9,8.4a2.12,2.12,0,0,1-2.7.1,18.39,18.39,0,0,0-13.1-4.8c-10.9,0-19.7,9.2-19.7,20.2a19.93,19.93,0,0,0,19.8,19.9,23.63,23.63,0,0,0,8.9-1.6v-5.8h-6.3A1.82,1.82,0,0,1,220,422v-9.9a1.84,1.84,0,0,1,1.9-1.9H242a1.88,1.88,0,0,1,1.8,1.9l.1,26.9a2.47,2.47,0,0,1-.8,1.6,50.47,50.47,0,0,1-24.8,6.51,35.91,35.91,0,0,1,0-71.81Z" transform="translate(-18.04 -23.9)"/><path class="cls-1" d="M280.64,443.62l31.3-67.3a2,2,0,0,1,1.7-1.1h1a2,2,0,0,1,1.7,1.1l31.3,67.3a1.77,1.77,0,0,1-1.7,2.6h-11.1c-1.8,0-2.6-.59-3.5-2.5l-3.6-7.9h-27.2l-3.6,8a3.72,3.72,0,0,1-3.6,2.4h-11A1.77,1.77,0,0,1,280.64,443.62Zm41.1-21.4-7.6-16.5H314l-7.5,16.5Z" transform="translate(-18.04 -23.9)"/><path class="cls-1" d="M387.84,378.12a1.9,1.9,0,0,1,1.9-1.9h11.9a2,2,0,0,1,1.9,1.9v53.4h23.8a1.9,1.9,0,0,1,1.9,1.9v10.9a1.9,1.9,0,0,1-1.9,1.9h-37.6a1.9,1.9,0,0,1-1.9-1.9Z" transform="translate(-18.04 -23.9)"/><path class="cls-1" d="M470.94,378.12a1.9,1.9,0,0,1,1.9-1.9h41.4a1.9,1.9,0,0,1,1.9,1.9V389a1.9,1.9,0,0,1-1.9,1.9h-27.7v12.4h22.8a2,2,0,0,1,1.9,1.9v10.9a1.9,1.9,0,0,1-1.9,1.9h-22.8v13.5h27.7a1.9,1.9,0,0,1,1.9,1.9v10.9a1.9,1.9,0,0,1-1.9,1.9h-41.4a1.9,1.9,0,0,1-1.9-1.9Z" transform="translate(-18.04 -23.9)"/><path class="cls-1" d="M222.26,311.4a1.17,1.17,0,0,1,1.18-1.17h7.38A1.21,1.21,0,0,1,232,311.4v33.11h14.75a1.18,1.18,0,0,1,1.18,1.18v6.76a1.17,1.17,0,0,1-1.18,1.17H223.44a1.17,1.17,0,0,1-1.18-1.17Z" transform="translate(-18.04 -23.9)"/><path class="cls-1" d="M270.25,352l19.41-41.72a1.25,1.25,0,0,1,1-.68h.62a1.25,1.25,0,0,1,1.05.68L311.79,352a1.09,1.09,0,0,1-1.05,1.61h-6.89c-1.11,0-1.61-.37-2.17-1.55l-2.23-4.89H282.59l-2.23,5a2.31,2.31,0,0,1-2.23,1.48h-6.82A1.1,1.1,0,0,1,270.25,352Zm25.48-13.26L291,328.52H291l-4.65,10.23Z" transform="translate(-18.04 -23.9)"/><path class="cls-1" d="M177.06,490.87a.64.64,0,0,1,.64-.64h14.08a.64.64,0,0,1,.64.64v3.71a.64.64,0,0,1-.64.64h-9.42v4.22h7.75a.68.68,0,0,1,.65.65v3.7a.65.65,0,0,1-.65.65h-7.75V509h9.42a.64.64,0,0,1,.64.64v3.71a.64.64,0,0,1-.64.64H177.7a.64.64,0,0,1-.64-.64Z" transform="translate(-18.04 -23.9)"/><path class="cls-1" d="M209.9,510.79l1.6-2.82a.88.88,0,0,1,1.16-.2c.13.07,2.58,1.87,4.82,1.87a2.13,2.13,0,0,0,2.35-2c0-1.43-1.19-2.52-3.5-3.43-2.93-1.16-6.6-3.44-6.6-7.52,0-3.36,2.62-6.76,7.85-6.76a12.63,12.63,0,0,1,7.28,2.55.84.84,0,0,1,.2,1.08l-1.73,2.62c-.24.38-.85.68-1.16.44s-2.78-2-4.86-2a2,2,0,0,0-2.14,1.74c0,1.26,1,2.21,3.71,3.3s6.86,3.12,6.86,7.75c0,3.5-3,7-8,7-4.42,0-6.87-1.83-7.65-2.61C209.73,511.41,209.63,511.27,209.9,510.79Z" transform="translate(-18.04 -23.9)"/><path class="cls-1" d="M247.23,495.22h-4.86a.64.64,0,0,1-.64-.64v-3.71a.64.64,0,0,1,.64-.64h15.1a.64.64,0,0,1,.64.64v3.71a.64.64,0,0,1-.64.64H252.6v18.16a.66.66,0,0,1-.64.64h-4.08a.67.67,0,0,1-.65-.64Z" transform="translate(-18.04 -23.9)"/><path class="cls-1" d="M271.51,513.14l10.64-22.88a.69.69,0,0,1,.58-.37h.34a.71.71,0,0,1,.58.37l10.64,22.88a.6.6,0,0,1-.58.88h-3.77c-.61,0-.89-.2-1.19-.85l-1.23-2.68h-9.24l-1.23,2.72a1.25,1.25,0,0,1-1.22.81h-3.74A.6.6,0,0,1,271.51,513.14Zm14-7.27-2.58-5.61h0l-2.55,5.61Z" transform="translate(-18.04 -23.9)"/><path class="cls-1" d="M313.19,495.22h-4.86a.64.64,0,0,1-.64-.64v-3.71a.64.64,0,0,1,.64-.64h15.1a.64.64,0,0,1,.64.64v3.71a.64.64,0,0,1-.64.64h-4.86v18.16a.67.67,0,0,1-.65.64h-4.08a.67.67,0,0,1-.65-.64Z" transform="translate(-18.04 -23.9)"/><path class="cls-1" d="M341.75,490.87a.65.65,0,0,1,.65-.64h14.08a.64.64,0,0,1,.64.64v3.71a.64.64,0,0,1-.64.64h-9.42v4.22h7.75a.68.68,0,0,1,.65.65v3.7a.65.65,0,0,1-.65.65h-7.75V509h9.42a.64.64,0,0,1,.64.64v3.71a.64.64,0,0,1-.64.64H342.4a.65.65,0,0,1-.65-.64Z" transform="translate(-18.04 -23.9)"/><path class="cls-1" d="M375.05,174.06c-2.68,2.37-5.2,4.93-8.06,7-5,3.68-10.27,7-15.25,10.64-3.81,2.82-7.58,5.8-9.24,10.75,1.46.8,3.08,1.32,4.19,2.37,4.69,4.43,4.17,8.72,1.06,14.46-2.93,5.41-8.22,8.27-13.4,10.88a177.27,177.27,0,0,1-21.69,9.6,124,124,0,0,1-23.33,5.78c-9.63,1.3-15.05-3.59-15.52-13.3-.62-12.76-.77-25.55-.94-38.34q-.64-46.08-1.09-92.18c-.06-4.94,1.27-6.24,6.27-6.23q20,0,40,.08c4.23,0,4.46-.25,3.81-4.5-.14-.87-.43-1.72-.73-2.85-8.72,0-17.38,0-26.05,0-6.62,0-13.24.13-19.86,0a4.43,4.43,0,0,1-4.53-4.73c-.06-4.46-.07-13.23.06-18.15a20.93,20.93,0,1,0-7.32,0c.13,4.92.12,13.66.06,18.12A4.43,4.43,0,0,1,259,88.3c-6.61.09-13.23,0-19.85,0-8.67,0-17.33,0-26.06,0-.29,1.13-.58,2-.72,2.85-.65,4.25-.42,4.51,3.81,4.5q20,0,40-.08c5,0,6.33,1.29,6.27,6.23q-.51,46.1-1.09,92.18c-.17,12.79-.32,25.58-.94,38.34-.47,9.71-5.9,14.6-15.52,13.3a124,124,0,0,1-23.33-5.78,177.27,177.27,0,0,1-21.69-9.6c-5.18-2.61-10.47-5.47-13.4-10.88-3.11-5.74-3.63-10,1.06-14.46,1.11-1.05,2.73-1.57,4.19-2.37-1.66-5-5.43-7.93-9.24-10.75-5-3.69-10.26-7-15.25-10.64-2.86-2.11-5.38-4.67-8.06-7-9.33,11.85-8.29,39.11.64,50.87,2.53-4.1,6.16-6.05,10.81-4.59a25.67,25.67,0,0,1,8.16,4c5.79,4.58,11.18,9.64,16.82,14.41a114.87,114.87,0,0,0,33.27,19.78c12.26,4.66,24.38,9.47,34.29,18.46,1.1,1,3.51,3,4,2.67.46.37,2.87-1.66,4-2.67,9.91-9,22-13.8,34.29-18.46a114.69,114.69,0,0,0,33.26-19.78c5.65-4.77,11-9.83,16.83-14.41a25.67,25.67,0,0,1,8.16-4c4.65-1.46,8.28.49,10.81,4.59C383.34,213.17,384.38,185.91,375.05,174.06ZM251.62,44.83A15.4,15.4,0,1,1,267,60.22,15.39,15.39,0,0,1,251.62,44.83Z" transform="translate(-18.04 -23.9)"/></svg>